<?xml version="1.0" encoding="utf-8"?>
<?xml-stylesheet type="text/xsl" href="rss1.xsl"?>
<rss version="2.0" xmlns:atom="http://www.w3.org/2005/Atom" xmlns:content="http://purl.org/rss/1.0/modules/content/" xmlns:dc="http://purl.org/dc/elements/1.1/" xmlns:media="http://search.yahoo.com/mrss/">
<channel>
 <title>Getty</title>
 <link>http://www.gettyimg.com/</link>
 <atom:link href="http://www.gettyimg.com/" rel="self" type="application/rss+xml" />

 
                <item>
                <title><![CDATA[【HD Live Performances】HDTV - Jessie J: Live @ Rock In Rio (2019) 1080i.HDTV.AVC.DD5.1-NoGRP [CHAPTER MENU]]]></title>
                <link><![CDATA[https://sharemania.us/threads/jessie-j-live-rock-in-rio-2019-1080i-hdtv-avc-dd5-1-nogrp-chapter-menu.244190/]]></link>
                <description><![CDATA[<article>
<blockquote class="messageText SelectQuoteContainer ugc baseHtml">
<span style="font-size: 26px"><b>Jessie J: Live at Rock In Rio (2019)</b></span><br>
<br>
<span style="color: rgb(51, 102, 0)"><span style="font-size: 22px">Chapter Menu</span></span><br>
<br>
Menu<br>
00:00:00.000 : (Backstage)<br>
00:01:58.422 : Master Piece<br>
00:05:26.050 : Do It like a dude<br>
00:08:42.814 : Burnin'up <br>
00:12:44.619 : Nobody’s Perfect<br>
00:19:31.262 : It's My Party <br>
00:21:00.000 : Sexy Lady<br>
00:22:15.000 : Wild<br>
00:27:25.000 : Queen<br>
00:33:24.000 : Flashlight<br>
00:37:50.000 : Brave<br>
00:42:20.000 : Who You Are<br>
00:47:03.018 : Bang Bang<br>
00:51:35.450 : Domino<br>
00:56:04.554 : Price Tag (Interaction)<br>
00:57:31.458 : Price Tag<br>
<br>
<img src="https://images2.imgbox.com/a4/2d/0EEGfdm0_o.png" class="bbCodeImage LbImage" alt="[​IMG]" data-url="https://images2.imgbox.com/a4/2d/0EEGfdm0_o.png" style=""> <br>
<img src="https://images2.imgbox.com/56/52/gI0VHbgu_o.jpg" class="bbCodeImage LbImage" alt="[​IMG]" data-url="https://images2.imgbox.com/56/52/gI0VHbgu_o.jpg" style=""> <br>
<br>
<div class="ToggleTriggerAnchor bbCodeSpoilerContainer">
<button type="button" class="button bbCodeSpoilerButton ToggleTrigger Tooltip JsOnly" data-target="> .SpoilerTarget"><span>Spoiler: <span class="SpoilerTitle">MediaInfo</span></span></button>
<div class="SpoilerTarget bbCodeSpoilerText">
<div class="bbCodeBlock bbCodeCode">
<div class="type">Code:</div>
<pre>General
Unique ID                   : 53696597806652961614063603128700559693 (0x286596AC0C78C253EC196F215144E14D)
Complete name               : Jessie J - Rock In Rio (2019) 1080i.HDTV.AVC.DD5.1-NoGRP.mkv
Format                      : Matroska
Format version              : Version 4
File size                   : 5.22 GiB
Duration                    : 1 h 4 min
Overall bit rate            : 11.5 Mb/s
Frame rate                  : 29.970 FPS
Movie name                  : Jessie J: Rock In Rio (2019)
Encoded date                : 2024-05-04 01:12:01 UTC
Writing application         : mkvmerge v84.0 ('Sleeper') 64-bit
Writing library             : libebml v1.4.5 + libmatroska v1.7.1

Video
ID                          : 1
Format                      : AVC
Format/Info                 : Advanced Video Codec
Format profile              : High@L4
Format settings             : CABAC / 4 Ref Frames
Format settings, CABAC      : Yes
Format settings, Reference  : 4 frames
Codec ID                    : V_MPEG4/ISO/AVC
Duration                    : 1 h 4 min
Bit rate                    : 11.2 Mb/s
Width                       : 1 920 pixels
Height                      : 1 080 pixels
Display aspect ratio        : 16:9
Frame rate mode             : Constant
Frame rate                  : 29.970 (30000/1001) FPS
Color space                 : YUV
Chroma subsampling          : 4:2:0
Bit depth                   : 8 bits
Scan type                   : MBAFF
Scan type, store method     : Interleaved fields
Scan order                  : Top Field First
Bits/(Pixel*Frame)          : 0.180
Stream size                 : 5.04 GiB (97%)
Default                     : Yes
Forced                      : No

Audio
ID                          : 2
Format                      : AC-3
Format/Info                 : Audio Coding 3
Commercial name             : Dolby Digital
Codec ID                    : A_AC3
Duration                    : 1 h 4 min
Bit rate mode               : Constant
Bit rate                    : 384 kb/s
Channel(s)                  : 6 channels
Channel layout              : L R C LFE Ls Rs
Sampling rate               : 48.0 kHz
Frame rate                  : 31.250 FPS (1536 SPF)
Compression mode            : Lossy
Stream size                 : 178 MiB (3%)
Title                       : AC3
Language                    : English
Service kind                : Complete Main
Default                     : Yes
Forced                      : No
AC3_metadata cmixlev        : -3.0 dB
 surmixlev                  : -3 dB

Menu
00:00:00.000                : (Backstage)
00:01:58.422                : Master Piece
00:05:26.050                : Do It like a dude
00:08:42.814                : Burnin'up 
00:12:44.619                : Nobody’s Perfect
00:19:31.262                : It's My Party 
00:21:00.000                : Sexy Lady
00:22:15.000                : Wild
00:27:25.000                : Queen
00:33:24.000                : Flashlight
00:37:50.000                : Brave
00:42:20.000                : Who You Are
00:47:03.018                : Bang Bang
00:51:35.450                : Domino
00:56:04.554                : Price Tag (Interaction)
00:57:31.458                : Price Tag
</pre>
</div></div>
</div>
<div class="ToggleTriggerAnchor bbCodeSpoilerContainer">
<button type="button" class="button bbCodeSpoilerButton ToggleTrigger Tooltip JsOnly" data-target="> .SpoilerTarget"><span>Spoiler: <span class="SpoilerTitle">Download</span></span></button>
<div class="SpoilerTarget bbCodeSpoilerText">
<div class="bbCodeBlock bbCodeVfcHH HiddenContent">
<div class="attribution type">Hidden Content:</div>
<blockquote>You must reply before you can see the hidden data contained here.</blockquote>
</div></div>
</div>
<div class="messageTextEndMarker">&nbsp;</div>
</blockquote>
</article>]]></description>
                <author><![CDATA[AlexVicente]]></author>
                </item>

                </channel></rss>